<?xml version="1.0" encoding="iso-8859-1"?>
<!DOCTYPE svg PUBLIC "-//W3C//DTD SVG 1.1//EN" "http://www.w3.org/Graphics/SVG/1.1/DTD/svg11.dtd">
<svg 
 version="1.1" xmlns="http://www.w3.org/2000/svg" xmlns:xlink="http://www.w3.org/1999/xlink" x="0px" y="0px" width="512px"
	 height="512px" viewBox="0 0 512 512" enable-background="new 0 0 512 512" xml:space="preserve"
><g fill="#ffffff" id="5151e0c8492e5103c096af88a5292213"><g fill="#ffffff"></g><path display="inline" d="M468.113,61.333H43.887C19.964,61.333,0.5,80.738,0.5,104.591v302.817
		c0,23.854,19.464,43.259,43.387,43.259h424.227c23.92,0,43.387-19.405,43.387-43.259V104.591
		C511.5,80.738,492.033,61.333,468.113,61.333z M434.954,350.306c-2.822,2.823-6.529,4.23-10.228,4.23
		c-3.697,0-7.404-1.407-10.228-4.23l-89.758-89.491L256,309.771l-68.739-48.956l-89.763,89.491c-2.82,2.823-6.525,4.23-10.225,4.23
		c-3.7,0-7.402-1.407-10.225-4.23c-5.648-5.622-5.648-14.757,0-20.389l86.353-86.094l-84.532-60.206
		c-6.5-4.624-8.006-13.635-3.365-20.112c4.646-6.479,13.675-7.979,20.177-3.351L256,274.331l160.319-114.177
		c6.497-4.629,15.527-3.128,20.175,3.351c4.644,6.478,3.137,15.488-3.364,20.112l-84.53,60.206l86.354,86.094
		C440.601,335.549,440.601,344.684,434.954,350.306z"></path></g></svg>