<?xml version="1.0" encoding="iso-8859-1"?>
<!DOCTYPE svg PUBLIC "-//W3C//DTD SVG 1.1//EN" "http://www.w3.org/Graphics/SVG/1.1/DTD/svg11.dtd">
<svg 
 version="1.1" xmlns="http://www.w3.org/2000/svg" xmlns:xlink="http://www.w3.org/1999/xlink" x="0px" y="0px" width="512px"
	 height="512px" viewBox="0 0 512 512" style="enable-background:new 0 0 512 512;" xml:space="preserve"
><g fill="#c6c6c6" id="7935ec95c421cee6d86eb22ecd10dc07"><g fill="#c6c6c6"></g><path style="display: inline;" d="M256,0.5C114.891,0.5,0.5,114.893,0.5,256S114.891,511.5,256,511.5
		c141.107,0,255.5-114.393,255.5-255.5S397.107,0.5,256,0.5z M351.813,149.542c29.396,0,53.229,23.833,53.229,53.229
		c0,29.396-23.833,53.229-53.229,53.229s-53.229-23.833-53.229-53.229C298.583,173.374,322.416,149.542,351.813,149.542z
		 M160.188,149.542c29.396,0,53.229,23.833,53.229,53.229c0,29.396-23.833,53.229-53.229,53.229s-53.229-23.833-53.229-53.229
		C106.958,173.374,130.791,149.542,160.188,149.542z M423.235,319.717c-0.191,1.019-20.688,101.589-165.265,101.589
		c-125.916,0-164.062-94.914-165.625-98.952c-2.969-7.681,0.848-16.31,8.525-19.279c7.673-2.939,16.276,0.836,19.258,8.479
		c1.36,3.418,33.048,79.943,137.842,79.943c120.111,0,135.818-76.491,135.964-77.261c1.514-8.097,9.29-13.445,17.391-11.91
		C419.418,303.84,424.749,311.629,423.235,319.717z"></path></g></svg>